<svg width="25" height="26" fill="none" xmlns="http://www.w3.org/2000/svg"><path d="M20.898 4.166h0c1.464.973 2.375 1.94 2.41 1.978h0l.334.356-.334.356h0c-.035.038-.946 1.005-2.41 1.978l.055.083-.055-.083c-1.964 1.304-3.994 1.99-5.87 1.99-2.856 0-5.715-1.586-7.8-3.502l-.07-.064-.068.067-4.643 4.536-.782-.752L6.31 6.572l.073-.071-.073-.072L1.665 1.89l.782-.75L7.09 5.674l.068.067.07-.064c2.084-1.916 4.945-3.501 7.8-3.501 1.876 0 3.905.685 5.87 1.99zM8.015 6.426l-.081.073.08.074a14.717 14.717 0 002.708 1.95c1.222.676 2.715 1.236 4.306 1.236 1.597 0 3.09-.56 4.312-1.235a14.62 14.62 0 002.702-1.95l.081-.074-.081-.073a14.719 14.719 0 00-2.706-1.95c-1.223-.676-2.716-1.237-4.307-1.237-1.597 0-3.09.56-4.312 1.236a14.62 14.62 0 00-2.702 1.95zM3.952 21.201h0c-1.464-.972-2.375-1.94-2.41-1.977h0l-.334-.356.334-.356h0c.035-.038.946-1.005 2.41-1.978l-.055-.083.055.083c1.964-1.304 3.994-1.99 5.87-1.99 2.856 0 5.716 1.586 7.8 3.502l.07.064.068-.067 4.643-4.536.782.751-4.645 4.539-.073.071.073.072 4.645 4.537-.782.752-4.643-4.537-.068-.066-.07.064c-2.084 1.916-4.945 3.501-7.8 3.501-1.876 0-3.905-.685-5.87-1.99zm12.883-2.259l.081-.073-.08-.074a14.718 14.718 0 00-2.707-1.95c-1.223-.676-2.716-1.236-4.307-1.236-1.597 0-3.09.56-4.312 1.235a14.619 14.619 0 00-2.702 1.95l-.081.073.081.074a14.715 14.715 0 002.706 1.95c1.223.676 2.716 1.237 4.308 1.237 1.596 0 3.089-.56 4.31-1.236a14.62 14.62 0 002.703-1.95z" fill="#fff" stroke="#F9F9FA" stroke-width=".2"/></svg>