<svg width="18" height="9" fill="none" xmlns="http://www.w3.org/2000/svg"><path d="M15.152 2.571h0a11.612 11.612 0 011.883 1.593h0l.25.276-.25.275h0c-.027.03-.739.81-1.883 1.594l.056.082-.056-.082c-1.535 1.05-3.119 1.602-4.58 1.602-2.227 0-4.46-1.275-6.09-2.82l-.071-.067-.069.069L.724 8.739.141 8.16l3.623-3.65.07-.071-.07-.07L.141.719.724.141l3.618 3.646.069.07.07-.068C6.112 2.245 8.346.97 10.572.97c1.462 0 3.046.551 4.58 1.602zM5.066 4.367l-.077.072.077.073C5.478 4.9 6.23 5.542 7.19 6.09c.959.547 2.131 1.001 3.383 1.001 1.254 0 2.427-.454 3.386-1a11.49 11.49 0 002.119-1.577l.077-.073-.078-.072a11.565 11.565 0 00-2.122-1.577c-.959-.547-2.131-1.002-3.383-1.002-1.254 0-2.427.455-3.385 1.001a11.488 11.488 0 00-2.12 1.577z" fill="#130F2C" stroke="#fff" stroke-width=".2"/></svg>