<svg width="22" height="32" fill="none" xmlns="http://www.w3.org/2000/svg"><path d="M.9 11.348c.015 1.949.608 4.105 1.495 6.25.887 2.146 2.072 4.285 3.277 6.202a63.044 63.044 0 003.4 4.87c.486.63.908 1.15 1.231 1.533.317.375.543.624.644.716a.529.529 0 00.781.016.478.478 0 00.085-.053c.04-.03.087-.07.14-.12.105-.098.24-.237.398-.412.318-.35.738-.85 1.223-1.467a56.968 56.968 0 003.42-4.896c1.217-1.949 2.414-4.136 3.308-6.32.894-2.185 1.486-4.373 1.486-6.323v0A10.456 10.456 0 003.906 3.997 10.257 10.257 0 00.9 11.348zm0 0s0 0 0 0H1 .9s0 0 0 0zm10.444-9.391h0a9.398 9.398 0 019.386 9.387c0 1.64-.481 3.485-1.235 5.368-.753 1.881-1.776 3.794-2.854 5.566-2.092 3.443-4.386 6.35-5.296 7.465-.906-1.116-3.188-4.023-5.275-7.466-2.154-3.55-4.087-7.65-4.112-10.937h0a9.208 9.208 0 012.698-6.598h0a9.358 9.358 0 016.688-2.785z" fill="#130F2C" stroke="#130F2C"/><path d="M11.345 17.814h0a6.536 6.536 0 006.528-6.528v0a6.528 6.528 0 10-6.528 6.528zM8.305 6.736a5.471 5.471 0 013.04-.922 5.478 5.478 0 015.471 5.472 5.47 5.47 0 11-8.511-4.55z" fill="#130F2C" stroke="#130F2C"/></svg>