<svg width="24" height="30" fill="none" xmlns="http://www.w3.org/2000/svg"><path d="M23.727 29.237V25.03c0-5.206-3.413-9.63-8.11-11.156a7.421 7.421 0 003.791-6.466C19.408 3.326 16.083 0 12 0S4.59 3.326 4.59 7.408a7.421 7.421 0 003.792 6.466C3.679 15.4.273 19.824.273 25.03v4.207c0 .422.341.763.763.763h21.94a.764.764 0 00.75-.763zM6.105 7.408a5.897 5.897 0 015.889-5.888 5.897 5.897 0 015.888 5.888 5.897 5.897 0 01-5.888 5.889 5.897 5.897 0 01-5.889-5.889zm16.102 21.066H1.78v-3.45c0-5.628 4.579-10.213 10.213-10.213 5.634 0 10.213 4.579 10.213 10.213v3.45z" fill="#130F2C"/></svg>