<svg width="19" height="18" viewBox="0 0 19 18" fill="none" xmlns="http://www.w3.org/2000/svg">
<path d="M9.43004 2.96945C9.19335 2.70401 8.93794 2.46451 8.66495 2.25333L8.66491 2.25331C7.79462 1.58021 6.7962 1.23438 5.70998 1.23438C4.26996 1.23438 2.93853 1.81283 1.96991 2.86339L1.9699 2.86341C1.01443 3.89982 0.5 5.30246 0.5 6.80131C0.5 8.37083 1.09145 9.78515 2.28723 11.2281L2.28724 11.2281C3.33576 12.4932 4.83015 13.7667 6.50626 15.195L6.53193 15.2169L6.533 15.2178L6.53299 15.2178L6.53681 15.2211C7.11628 15.7149 7.77053 16.2725 8.44879 16.8656L9.43004 2.96945ZM9.43004 2.96945C9.66671 2.70403 9.92211 2.46451 10.1952 2.25331C11.0655 1.58021 12.0639 1.23438 13.1502 1.23438C14.59 1.23438 15.9216 1.81282 16.8902 2.86339L16.8902 2.86341C17.8457 3.89984 18.36 5.3025 18.36 6.80131C18.36 8.3708 17.7687 9.78512 16.5729 11.2279C15.5247 12.4929 14.0309 13.7659 12.3556 15.1936L12.3269 15.2181L12.3266 15.2183L9.43004 2.96945ZM9.43001 17.2344C9.06901 17.2344 8.72056 17.1036 8.44895 16.8657L9.43001 17.2344ZM9.43001 17.2344C9.79079 17.2344 10.1393 17.1036 10.4108 16.8661M9.43001 17.2344L10.4108 16.8661M10.4108 16.8661C11.0905 16.2717 11.7458 15.7132 12.3262 15.2187L10.4108 16.8661Z" stroke="#130F2C"/>
</svg>
