<svg width="40" height="30" viewBox="0 0 40 30" fill="none" xmlns="http://www.w3.org/2000/svg">
<path d="M37.1557 22.7591L37.1556 22.7591C37.1053 23.1497 36.9787 23.7881 36.7838 24.4178C36.5907 25.0412 36.323 25.6822 35.9789 26.0564C34.9538 27.184 33.8926 27.2963 33.145 27.3753L33.1446 27.3754L33.1445 27.3754C33.0553 27.3847 32.9737 27.3937 32.9003 27.4029L32.8925 27.4038L32.8925 27.4036C27.8221 27.7703 20.2079 27.8265 19.858 27.8286L19.8549 27.8286C19.4654 27.8229 10.1169 27.68 7.1782 27.407L7.16789 27.406L7.16794 27.4057C7.02195 27.3819 6.86325 27.3635 6.69172 27.3441L6.69149 27.3441L6.68035 27.3428C5.81657 27.2439 4.58086 27.1023 3.62989 26.0569C3.62966 26.0566 3.62943 26.0564 3.62919 26.0561L3.61051 26.0361C3.61027 26.0359 3.61004 26.0356 3.6098 26.0354C3.27026 25.6812 3.00788 25.0785 2.81874 24.4722C2.62766 23.8597 2.5038 23.2182 2.45336 22.7656L2.45298 22.7621L2.45302 22.7621C2.4345 22.5514 2.1711 19.4883 2.1711 16.5058V13.5419C2.1711 10.604 2.42724 7.57984 2.45211 7.29564L2.45266 7.28928L2.4528 7.28929C2.51268 6.83068 2.64594 6.18457 2.84206 5.56759C3.03634 4.95639 3.29942 4.35035 3.62948 3.9913C4.6839 2.83177 5.80265 2.70254 6.51927 2.61976L6.52024 2.61965L6.52032 2.61964L6.53695 2.61771C6.59854 2.61056 6.65504 2.60401 6.70743 2.59722L6.71597 2.59612L6.71598 2.59636C11.8082 2.23161 19.3747 2.17435 19.7925 2.17119L19.803 2.17111L19.8052 2.17109C20.0794 2.17292 27.7457 2.22789 32.8441 2.59637L32.852 2.59694L32.852 2.59715C32.9126 2.60476 32.9788 2.61239 33.051 2.62071L33.0546 2.62112L33.0548 2.62114L33.0572 2.62142C33.7919 2.70515 34.9404 2.83603 35.9896 3.95507L37.1557 22.7591ZM37.1557 22.7591L37.1563 22.753C37.1805 22.4746 37.4373 19.4471 37.4373 16.5058V13.5419C37.4373 10.5531 37.173 7.48331 37.1553 7.2843L37.1554 7.2843L37.155 7.28124C37.1046 6.81992 36.9808 6.16687 36.7898 5.545C36.6008 4.92962 36.3385 4.31915 35.9985 3.96454C35.9983 3.96432 35.9981 3.9641 35.9979 3.96388L35.9897 3.95519L37.1557 22.7591ZM37.4599 2.56825L37.4608 2.56919C38.1242 3.26327 38.5441 4.30373 38.8022 5.22574C39.059 6.14365 39.1498 6.92316 39.1661 7.07813L39.1676 7.09381C39.1677 7.0941 39.1677 7.09441 39.1677 7.09474C39.1806 7.23998 39.4584 10.3854 39.4587 13.5419V16.5058C39.4587 19.6565 39.1816 22.796 39.1678 22.9522C39.1677 22.9528 39.1677 22.9534 39.1676 22.9539L39.1637 22.9892C39.1636 22.9895 39.1636 22.9899 39.1635 22.9902C39.1444 23.144 39.0409 23.9057 38.7806 24.8045C38.5185 25.7091 38.1031 26.7324 37.4706 27.4199L37.47 27.4206C35.9332 29.1115 34.2042 29.2953 33.358 29.3851C33.2776 29.3935 33.2019 29.4015 33.1339 29.4104C33.1332 29.4105 33.1325 29.4106 33.1318 29.4107L33.0691 29.4172C27.8385 29.7974 19.9381 29.8494 19.8586 29.8497L19.8554 29.8497L19.8471 29.85L19.8388 29.8497L19.8371 29.8497C19.4316 29.8439 9.96688 29.7023 6.94774 29.4155L6.86204 29.4036C6.76556 29.3868 6.62899 29.3712 6.47825 29.354L6.46152 29.3521C5.44397 29.2356 3.60122 29.0219 2.14355 27.4266L2.14357 27.4266L2.14151 27.4244C1.48079 26.7297 1.06249 25.7015 0.805442 24.7933C0.549486 23.889 0.45886 23.1238 0.442574 22.9715L0.440723 22.9542C0.440688 22.9538 0.44065 22.9534 0.440609 22.9529C0.42732 22.803 0.15 19.6598 0.15 16.5058V13.5419C0.15 10.3908 0.426812 7.25054 0.440569 7.09554L0.444802 7.05773C0.464082 6.90376 0.567606 6.14186 0.82793 5.24306C1.08996 4.33837 1.50525 3.31524 2.13776 2.62786L2.13837 2.62719C3.69806 0.911467 5.43793 0.710129 6.2885 0.611963L6.28868 0.611943C6.30042 0.610573 6.3121 0.609221 6.32367 0.60788C6.37661 0.601747 6.42754 0.595847 6.47457 0.589556L6.5398 0.582779C11.8175 0.20259 19.7184 0.150604 19.7978 0.150301V0.150419L19.8037 0.150161L19.8042 0.150142L19.8046 0.150161L19.8046 0.150278L19.8106 0.150301C19.89 0.150604 27.7908 0.202592 33.0213 0.58277L33.0861 0.589554C33.1461 0.597532 33.2127 0.60516 33.2835 0.6132C34.1455 0.71124 35.905 0.912843 37.4599 2.56825Z" fill="#EFF0F3" stroke="#130F2C" stroke-width="0.3"/>
</svg>
