<svg width="18" height="9" viewBox="0 0 18 9" fill="none" xmlns="http://www.w3.org/2000/svg">
<path d="M15.1519 2.57142L15.1519 2.57142C16.2964 3.35527 17.008 4.13476 17.0349 4.16448L17.035 4.16462L17.2849 4.43995L17.035 4.7154L17.0349 4.71553C17.008 4.74524 16.2964 5.5246 15.1519 6.30859L15.2084 6.39109L15.1519 6.30859C13.6174 7.35975 12.0333 7.91074 10.5715 7.91074C8.34464 7.91074 6.11177 6.63554 4.48179 5.09079L4.41086 5.02356L4.34202 5.09293L0.724192 8.73863L0.141386 8.16103L3.76404 4.51037L3.83394 4.43994L3.76404 4.3695L0.141389 0.718975L0.724192 0.141377L4.34202 3.78708L4.41086 3.85645L4.48179 3.78922C6.1115 2.2446 8.34503 0.969264 10.5715 0.969264C12.0333 0.969264 13.6173 1.52025 15.1519 2.57142ZM5.06626 4.36659L4.9888 4.4395L5.06636 4.51231C5.47786 4.89862 6.22955 5.54194 7.1889 6.08913C8.14764 6.63598 9.32017 7.09048 10.5715 7.09048C11.8264 7.09048 12.9993 6.63635 13.9575 6.08976C14.9161 5.54284 15.666 4.89976 16.0766 4.51329L16.1541 4.44037L16.0765 4.36756C15.6652 3.98145 14.9136 3.33814 13.9543 2.7909C12.9955 2.244 11.8229 1.7894 10.5715 1.7894C9.31663 1.7894 8.14365 2.24353 7.1855 2.79012C6.22678 3.33704 5.47686 3.98012 5.06626 4.36659Z" fill="#130F2C" stroke="white" stroke-width="0.2"/>
</svg>
