<svg width="25" height="26" viewBox="0 0 25 26" fill="none" xmlns="http://www.w3.org/2000/svg">
<path d="M20.8976 4.16642L20.8976 4.16642C22.3623 5.13901 23.2732 6.1062 23.3083 6.14383L23.3084 6.14396L23.6416 6.49993L23.3084 6.85606L23.3083 6.85618C23.2732 6.8938 22.3623 7.86082 20.8976 8.83359L20.9529 8.91689L20.8976 8.83359C18.9337 10.138 16.9039 10.8232 15.0285 10.8232C12.1723 10.8232 9.31252 9.23815 7.22757 7.32242L7.1578 7.25832L7.09003 7.32453L2.44697 11.8608L1.66512 11.1095L6.30994 6.57144L6.38315 6.49992L6.30994 6.42839L1.66512 1.89049L2.44697 1.13924L7.09003 5.67547L7.1578 5.74168L7.22757 5.67757C9.31218 3.76202 12.1728 2.17679 15.0285 2.17679C16.9039 2.17679 18.9335 2.86204 20.8976 4.16642ZM8.01473 6.42539L7.93368 6.49936L8.01483 6.57321C8.53971 7.05094 9.49837 7.84635 10.7215 8.52274C11.9441 9.19883 13.437 9.75937 15.0285 9.75937C16.6246 9.75937 18.118 9.19928 19.3397 8.52352C20.562 7.84747 21.5184 7.05236 22.0421 6.57444L22.1231 6.50048L22.042 6.42662C21.5174 5.94914 20.5588 5.15374 19.3357 4.47728C18.1131 3.80113 16.6201 3.24047 15.0285 3.24047C13.4324 3.24047 11.939 3.80055 10.7172 4.47631C9.49484 5.15236 8.53845 5.94747 8.01473 6.42539Z" fill="white" stroke="#F9F9FA" stroke-width="0.2"/>
<path d="M3.95241 21.2015L3.9524 21.2015C2.48772 20.2289 1.57688 19.2617 1.54178 19.2241L1.54166 19.224L1.20844 18.868L1.54167 18.5119L1.54178 18.5117C1.57687 18.4741 2.48772 17.5071 3.95241 16.5343L3.89709 16.451L3.95241 16.5343C5.91634 15.23 7.94614 14.5447 9.82154 14.5447C12.6778 14.5447 15.5375 16.1298 17.6225 18.0455L17.6922 18.1096L17.76 18.0434L22.4031 13.5072L23.1849 14.2584L18.5401 18.7965L18.4669 18.868L18.5401 18.9395L23.1849 23.4774L22.4031 24.2287L17.76 19.6925L17.6922 19.6262L17.6225 19.6903C15.5379 21.6059 12.6773 23.1911 9.82154 23.1911C7.94614 23.1911 5.91651 22.5059 3.95241 21.2015ZM16.8353 18.9425L16.9164 18.8686L16.8352 18.7947C16.3103 18.317 15.3517 17.5216 14.1285 16.8452C12.9059 16.1691 11.4131 15.6086 9.82154 15.6086C8.22549 15.6086 6.73208 16.1686 5.51031 16.8444C4.28801 17.5204 3.33165 18.3156 2.80794 18.7935L2.72689 18.8674L2.80804 18.9413C3.33266 19.4188 4.29124 20.2142 5.51439 20.8906C6.73698 21.5668 8.22993 22.1275 9.82154 22.1275C11.4176 22.1275 12.911 21.5674 14.1329 20.8916C15.3552 20.2156 16.3116 19.4204 16.8353 18.9425Z" fill="white" stroke="#F9F9FA" stroke-width="0.2"/>
</svg>
