<svg width="22" height="32" viewBox="0 0 22 32" fill="none" xmlns="http://www.w3.org/2000/svg">
   <path
      d="M0.900462 11.3482C0.915189 13.297 1.50782 15.4535 2.39485 17.598C3.28232 19.7436 4.46704 21.8832 5.67169 23.8C6.87649 25.717 8.10227 27.4128 9.07281 28.6706C9.5581 29.2996 9.97979 29.8194 10.3034 30.2029C10.6199 30.578 10.8464 30.8274 10.9466 30.9191C10.9954 30.975 11.0555 31.02 11.1229 31.0512C11.1923 31.0833 11.2679 31.1 11.3444 31.1C11.4207 31.1001 11.4961 31.0836 11.5655 31.0518C11.6268 31.0236 11.682 30.984 11.7284 30.9352C11.7576 30.9218 11.7868 30.902 11.8132 30.8821C11.8529 30.8522 11.8997 30.8119 11.9523 30.7627C12.0578 30.6642 12.1925 30.5251 12.3513 30.35C12.6694 29.9995 13.0887 29.5003 13.5737 28.8827C14.5438 27.6474 15.779 25.9355 16.9949 23.9868C18.2106 22.0384 19.4083 19.8514 20.3022 17.6664C21.1957 15.4824 21.7885 13.2938 21.7885 11.3439V11.3438C21.7862 9.27276 21.1688 7.24905 20.0148 5.52935C18.8607 3.80964 17.2219 2.47141 15.3062 1.68438C13.3905 0.897347 11.2843 0.696971 9.25453 1.10866C7.22488 1.52034 5.36321 2.52549 3.90559 3.99665C2.94116 4.96072 2.17865 6.10743 1.66265 7.3697C1.14664 8.63202 0.887524 9.98456 0.900462 11.3482ZM0.900462 11.3482C0.900462 11.3482 0.900462 11.3483 0.900463 11.3483L1.00046 11.3474L0.900461 11.3481C0.900461 11.3481 0.900461 11.3482 0.900462 11.3482ZM11.3442 1.95704L11.3444 1.95704C13.8329 1.96007 16.2186 2.95 17.9782 4.70968C19.7378 6.46936 20.7276 8.85511 20.7305 11.3436C20.7305 12.9836 20.249 14.8291 19.4952 16.7116C18.7417 18.5932 17.7187 20.5058 16.6412 22.2782C14.5485 25.7208 12.2548 28.6279 11.3447 29.7425C10.4394 28.6268 8.15742 25.7198 6.06962 22.2774C3.91646 18.7271 1.98266 14.6277 1.95803 11.3402L1.95803 11.34C1.9466 10.1161 2.17929 8.90218 2.6425 7.76925C3.1057 6.63632 3.79012 5.6071 4.65574 4.74177L4.65622 4.7413C5.52999 3.856 6.5715 3.15379 7.71985 2.67572C8.86819 2.19766 10.1003 1.95334 11.3442 1.95704Z"
      fill="#130F2C" stroke="#130F2C" stroke-width="1" />
   <path
      d="M11.3446 17.8143H11.3447C13.0756 17.8123 14.735 17.1239 15.9589 15.8999C17.1828 14.676 17.8712 13.0166 17.8732 11.2858V11.2857C17.8732 9.99442 17.4903 8.73218 16.7729 7.65856C16.0556 6.58494 15.0359 5.74815 13.843 5.25402C12.65 4.75988 11.3374 4.63059 10.0709 4.8825C8.80452 5.13441 7.64124 5.7562 6.7282 6.66924C5.81516 7.58228 5.19337 8.74556 4.94146 10.012C4.68956 11.2784 4.81884 12.5911 5.31298 13.784C5.80711 14.977 6.6439 15.9966 7.71752 16.714C8.79114 17.4314 10.0534 17.8143 11.3446 17.8143ZM8.30484 6.73631C9.20459 6.13511 10.2624 5.81421 11.3445 5.8142C12.7952 5.81589 14.1859 6.39289 15.2116 7.41863C16.2374 8.44439 16.8144 9.83513 16.816 11.2858C16.816 12.3679 16.4951 13.4257 15.8939 14.3254C15.2927 15.2252 14.4382 15.9265 13.4384 16.3406C12.4387 16.7547 11.3385 16.8631 10.2772 16.652C9.21582 16.4409 8.24091 15.9198 7.47571 15.1546C6.71052 14.3894 6.18941 13.4144 5.9783 12.3531C5.76718 11.2917 5.87553 10.1916 6.28965 9.19182C6.70377 8.19204 7.40506 7.33752 8.30484 6.73631Z"
      fill="#130F2C" stroke="#130F2C" stroke-width="1" />
</svg>
