<svg width="17" height="17" viewBox="0 0 17 17" fill="none" xmlns="http://www.w3.org/2000/svg">
<path d="M16.0499 16.0499L16.0499 16.0499C16.25 15.8497 16.2501 15.5253 16.0499 15.3251C16.0499 15.3251 16.0499 15.3251 16.0499 15.3251L11.618 10.8933C12.5233 9.82463 13.075 8.44604 13.075 6.93748C13.075 3.55313 10.3219 0.8 6.93751 0.8C3.55313 0.8 0.8 3.55313 0.8 6.93751C0.8 10.3219 3.55313 13.075 6.93751 13.075C8.44607 13.075 9.82464 12.5233 10.8933 11.618L15.3251 16.0499C15.4252 16.1499 15.5567 16.2 15.6875 16.2C15.8184 16.2 15.9499 16.1499 16.0499 16.0499ZM6.93751 12.05C4.11889 12.05 1.82502 9.75641 1.82502 6.93751C1.82502 4.11861 4.11889 1.82499 6.93751 1.82499C9.75613 1.82499 12.05 4.11858 12.05 6.93751C12.05 9.75644 9.75613 12.05 6.93751 12.05Z" fill="#130F2C" stroke="#130F2C" stroke-width="0.4"/>
</svg>
