<svg width="24" height="30" viewBox="0 0 24 30" fill="none" xmlns="http://www.w3.org/2000/svg">
<path d="M23.7269 29.2368V25.03C23.7269 19.8242 20.3143 15.4002 15.6173 13.8738C17.8758 12.6019 19.4084 10.182 19.4084 7.40848C19.4084 3.32575 16.0827 0 11.9999 0C7.91721 0 4.59146 3.32575 4.59146 7.40848C4.59146 10.182 6.12404 12.6019 8.38257 13.8738C3.67936 15.4002 0.272949 19.8242 0.272949 25.03V29.2368C0.272949 29.6587 0.614211 30 1.03613 30H22.9762C23.3857 29.9938 23.7269 29.6587 23.7269 29.2368ZM6.10542 7.40848C6.10542 4.16339 8.74865 1.52017 11.9937 1.52017C15.2388 1.52017 17.8821 4.16339 17.8821 7.40848C17.8821 10.6536 15.2388 13.2968 11.9937 13.2968C8.74865 13.2968 6.10542 10.6536 6.10542 7.40848ZM22.2068 28.4736H1.78071V25.0238C1.78071 19.3961 6.35982 14.8108 11.9937 14.8108C17.6277 14.8108 22.2068 19.3899 22.2068 25.0238V28.4736Z" fill="#130F2C"/>
</svg>
