<?xml version="1.0" encoding="utf-8"?><svg viewBox="0 0 512 512" xmlns="http://www.w3.org/2000/svg" xmlns:xlink="http://www.w3.org/1999/xlink"><style>:root>svg{display:none}:root>svg:target{display:block}</style><svg viewBox="0 0 12 21" id="arrow-left" xmlns="http://www.w3.org/2000/svg"><path d="M1.482 10.434l9.774-9.425a.574.574 0 000-.835.627.627 0 00-.866 0L.18 10.019a.574.574 0 000 .835l10.21 9.84a.628.628 0 00.43.176.608.608 0 00.431-.175.574.574 0 000-.836l-9.769-9.425z"/></svg><svg viewBox="0 0 12 21" id="arrow-right" xmlns="http://www.w3.org/2000/svg"><path d="M10.086 10.566L.313 19.99a.574.574 0 000 .835c.24.232.626.232.867 0l10.21-9.845a.574.574 0 000-.835L1.178.306A.628.628 0 00.748.13a.609.609 0 00-.431.175.574.574 0 000 .836l9.77 9.425z"/></svg><svg viewBox="0 0 412.735 412.735" id="heart" xmlns="http://www.w3.org/2000/svg"><path d="M295.706 46.058c58.744.286 106.294 47.836 106.58 106.58 0 107.624-195.918 214.204-195.918 214.204S10.449 258.695 10.449 152.638c0-58.862 47.717-106.58 106.58-106.58h0a105.534 105.534 0 0189.339 48.065 106.578 106.578 0 0189.338-48.065z"/></svg><svg viewBox="0 0 512.001 512.001" id="instagram" xmlns="http://www.w3.org/2000/svg"><path d="M373.406 0H138.594C62.172 0 0 62.172 0 138.594V373.41C0 449.828 62.172 512 138.594 512H373.41C449.828 512 512 449.828 512 373.41V138.594C512 62.172 449.828 0 373.406 0zm108.578 373.41c0 59.867-48.707 108.574-108.578 108.574H138.594c-59.871 0-108.578-48.707-108.578-108.574V138.594c0-59.871 48.707-108.578 108.578-108.578H373.41c59.867 0 108.574 48.707 108.574 108.578zm0 0"/><path d="M256 116.004c-77.195 0-139.996 62.8-139.996 139.996S178.804 395.996 256 395.996 395.996 333.196 395.996 256 333.196 116.004 256 116.004zm0 249.976c-60.64 0-109.98-49.335-109.98-109.98 0-60.64 49.34-109.98 109.98-109.98 60.645 0 109.98 49.34 109.98 109.98 0 60.645-49.335 109.98-109.98 109.98zm0 0M399.344 66.285c-22.813 0-41.367 18.559-41.367 41.367 0 22.813 18.554 41.371 41.367 41.371s41.37-18.558 41.37-41.37-18.558-41.368-41.37-41.368zm0 52.719c-6.258 0-11.352-5.094-11.352-11.352 0-6.261 5.094-11.351 11.352-11.351 6.261 0 11.355 5.09 11.355 11.351 0 6.258-5.094 11.352-11.355 11.352zm0 0"/></svg><svg viewBox="0 -62 512.002 512" id="youtube" xmlns="http://www.w3.org/2000/svg"><path d="M334.809 170.992l-113.114-61.89c-6.504-3.559-14.191-3.426-20.566.351-6.379 3.781-10.184 10.461-10.184 17.875v122.719c0 7.379 3.782 14.047 10.118 17.832 3.308 1.976 6.976 2.969 10.652 2.969a20.74 20.74 0 009.848-2.504L334.68 207.52a20.772 20.772 0 0010.937-18.223 20.763 20.763 0 00-10.808-18.305zm-113.86 63.617v-91.718l84.54 46.257zm0 0"/><path d="M508.234 91.527l-.023-.234c-.434-4.121-4.75-40.777-22.57-59.422C465.043 9.941 441.69 7.277 430.46 6a135.45 135.45 0 01-2.543-.305l-.895-.093C359.336.68 257.113.008 256.09.004L256 0l-.09.004C254.887.008 152.664.68 84.367 5.602l-.902.093c-.727.098-1.528.188-2.399.29-11.101 1.28-34.203 3.949-54.859 26.671C9.234 51.102 4.328 86.973 3.824 91.004l-.058.523C3.613 93.242 0 134.067 0 175.051v38.312c0 40.985 3.613 81.809 3.766 83.528l.027.257c.434 4.055 4.746 40.04 22.484 58.692 19.368 21.195 43.856 24 57.028 25.508 2.082.238 3.875.441 5.097.656l1.184.164c39.082 3.719 161.617 5.55 166.812 5.625l.157.004.156-.004c1.023-.004 103.242-.676 170.93-5.598l.894-.093c.856-.114 1.817-.215 2.871-.325 11.04-1.172 34.016-3.605 54.387-26.02 16.973-18.448 21.883-54.32 22.383-58.347l.058-.523c.153-1.719 3.77-42.54 3.77-83.524v-38.312c-.004-40.985-3.617-81.805-3.77-83.524zm-26.238 121.836c0 37.934-3.312 77-3.625 80.586-1.273 9.88-6.45 32.574-14.719 41.563-12.75 14.027-25.847 15.418-35.41 16.43a164.16 164.16 0 00-3.195.359c-65.469 4.734-163.832 5.46-168.363 5.488-5.082-.074-125.825-1.922-163.715-5.441-1.942-.317-4.04-.559-6.25-.809-11.215-1.285-26.567-3.043-38.371-16.027l-.278-.297c-8.125-8.465-13.152-29.688-14.43-41.149-.238-2.71-3.636-42.238-3.636-80.703v-38.312c0-37.89 3.305-76.914 3.625-80.574 1.52-11.637 6.793-32.957 14.719-41.575 13.14-14.453 26.996-16.054 36.16-17.113.875-.102 1.691-.195 2.445-.293 66.422-4.758 165.492-5.465 169.047-5.492 3.555.023 102.59.734 168.422 5.492.808.102 1.691.203 2.64.313 9.426 1.074 23.672 2.699 36.747 16.644l.12.129c8.126 8.465 13.153 30.059 14.43 41.75.227 2.559 3.637 42.172 3.637 80.719zm0 0"/></svg></svg>